<svg width="40" height="38" viewBox="0 0 40 38" fill="none" xmlns="http://www.w3.org/2000/svg">
<path d="M19.922 12.3677C15.9715 12.3677 12.7528 15.4982 12.7528 19.3406C12.7528 23.183 15.9715 26.3136 19.922 26.3136C23.8726 26.3136 27.0912 23.183 27.0912 19.3406C27.0912 15.4982 23.8726 12.3677 19.922 12.3677ZM38.323 18.2148L31.2508 14.7792L33.7526 7.48661C34.0887 6.49878 33.1253 5.56179 32.1171 5.89591L24.6193 8.32918L21.0796 1.44339C20.6016 0.513662 19.2425 0.513662 18.7645 1.44339L15.2322 8.32191L7.72695 5.88864C6.71131 5.56179 5.74795 6.49878 6.09148 7.47935L8.59322 14.7719L1.52112 18.2148C0.565226 18.6796 0.565226 20.0016 1.52112 20.4665L8.59322 23.9021L6.09148 31.2019C5.75542 32.1897 6.71878 33.1267 7.72695 32.7926L15.2247 30.3593L18.757 37.2379C19.235 38.1676 20.5941 38.1676 21.0721 37.2379L24.6044 30.3593L32.1022 32.7926C33.1178 33.1195 34.0812 32.1825 33.7377 31.2019L31.2359 23.9094L38.308 20.4737C39.2788 20.0016 39.2788 18.6796 38.323 18.2148ZM26.6805 25.9141C22.954 29.5386 16.8901 29.5386 13.1636 25.9141C9.4371 22.2896 9.4371 16.3916 13.1636 12.7672C16.8901 9.14269 22.954 9.14269 26.6805 12.7672C30.407 16.3916 30.407 22.2896 26.6805 25.9141Z" fill="#FAEC28"/>
</svg>
